<svg xmlns="http://www.w3.org/2000/svg" viewBox="0 0 512 512">
  <defs>
    <linearGradient id="logoGradient" x1="0%" y1="0%" x2="100%" y2="100%">
      <stop offset="0%" style="stop-color:#60a5fa;stop-opacity:1" />
      <stop offset="50%" style="stop-color:#a78bfa;stop-opacity:1" />
      <stop offset="100%" style="stop-color:#fb923c;stop-opacity:1" />
    </linearGradient>
  </defs>

  <rect width="512" height="512" fill="#000000" rx="80" />

  <g transform="translate(256, 256)">
    <path
      d="M-120,-80 L-120,80 L-100,80 L-100,-10 L-40,-10 C-10,-10 10,-30 10,-50 C10,-70 -10,-80 -40,-80 Z M-100,-60 L-40,-60 C-20,-60 -10,-55 -10,-50 C-10,-45 -20,-30 -40,-30 L-100,-30 Z"
      fill="url(#logoGradient)"
      stroke="url(#logoGradient)"
      stroke-width="2"
    />
    <path
      d="M30,-80 L100,-80 C120,-80 130,-70 130,-60 L130,-40 C130,-30 120,-20 100,-20 L50,-20 L50,0 L110,0 C120,0 125,5 125,10 L125,40 C125,50 120,80 90,80 L30,80 C20,80 10,70 10,60 L10,40 L30,40 L30,60 L90,60 C100,60 105,55 105,50 L105,20 C105,10 100,0 90,0 L40,0 C20,0 10,-10 10,-30 L10,-60 C10,-75 20,-80 30,-80 Z M30,-60 L30,-30 L50,-30 L50,-60 Z"
      fill="url(#logoGradient)"
      stroke="url(#logoGradient)"
      stroke-width="2"
    />
  </g>
</svg>
